Coordinates
version=1
nRows=8
nColumns=40
inDegrees=yes

Units are S.I. units (second, meters, Newtons, ...)
Angles are in degrees.

endheader
time	pelvis_tilt	pelvis_list	pelvis_rotation	pelvis_tx	pelvis_ty	pelvis_tz	hip_flexion_r	hip_adduction_r	hip_rotation_r	knee_angle_r	knee_angle_r_beta	ankle_angle_r	subtalar_angle_r	mtp_angle_r	hip_flexion_l	hip_adduction_l	hip_rotation_l	knee_angle_l	knee_angle_l_beta	ankle_angle_l	subtalar_angle_l	mtp_angle_l	lumbar_extension	lumbar_bending	lumbar_rotation	arm_flex_r	arm_add_r	arm_rot_r	elbow_flex_r	pro_sup_r	wrist_flex_r	wrist_dev_r	arm_flex_l	arm_add_l	arm_rot_l	elbow_flex_l	pro_sup_l	wrist_flex_l	wrist_dev_l
     41.21250000	     -3.87613481	     -3.59937686	     -0.71272515	      0.87887491	      0.92247561	      0.48872947	     22.25489961	      0.48142371	    -11.05551737	     22.42119288	     22.42119288	      5.80047257	     -7.51581423	     -3.62417726	      3.35424292	     -8.31162468	     -8.04635810	     31.40185744	     31.40185744	     18.19363189	     -6.68176175	     -5.31504711	     -9.26497330	      4.82283870	     -0.51605010	     -1.96679747	    -13.28124696	     -8.17026305	     37.26517998	     45.79966383	      0.00000000	      0.00000000	      9.11006047	    -11.80096495	    -10.93254161	     50.32169281	     47.13685783	      0.00000000	      0.00000000
     41.22571429	     -3.98498586	     -3.74454515	     -0.21175694	      0.87879587	      0.92281683	      0.49099995	     21.76536371	      0.65381196	    -11.63500418	     22.21611116	     22.21611116	      6.11886214	     -7.40975623	     -4.07939427	      5.15590039	     -8.77331981	     -6.49992282	     34.70702768	     34.70702768	     14.83901883	     -9.80058605	    -10.16175111	     -8.95289845	      5.11889853	      0.06268787	     -1.30333331	    -13.51796981	     -8.77143521	     39.17149712	     45.76635403	      0.00000000	      0.00000000	      9.97511992	    -11.04798896	    -10.08082027	     44.47028277	     46.98673008	      0.00000000	      0.00000000
     41.23892857	     -3.89417512	     -3.96865088	      0.23245049	      0.87858888	      0.92334166	      0.49338752	     21.04767496	      0.94433649	    -12.17143540	     21.97801228	     21.97801228	      6.54932439	     -7.17560578	     -4.30287728	      7.06225432	     -9.42153322	     -5.28652378	     38.71063923	     38.71063923	     13.23847809	    -11.26840421	    -10.54155308	     -9.00396636	      5.41849216	      0.01462652	      0.42851634	    -13.69041603	     -9.00919327	     40.07627019	     45.75640164	      0.00000000	      0.00000000	      8.93786482	    -10.70170331	     -9.75331084	     43.20849321	     46.92671966	      0.00000000	      0.00000000
     41.25214286	     -3.65391119	     -4.23925017	      0.58407970	      0.87825507	      0.92393746	      0.49589197	     20.22680054	      1.31851664	    -12.67667896	     21.81277925	     21.81277925	      6.95426417	     -6.94400470	     -4.49272693	      8.86739221	    -10.11696038	     -4.22453711	     42.71302494	     42.71302494	     11.61432854	    -12.43651105	    -10.60090675	     -9.31365775	      5.73089201	      0.40634024	      2.23347348	    -14.00660341	     -9.14094315	     40.81963693	     45.74724892	      0.00000000	      0.00000000	      8.15131901	    -10.25527315	     -9.50722924	     42.24507632	     46.88218014	      0.00000000	      0.00000000
     41.26535714	     -3.73948662	     -4.35431228	      1.05116177	      0.87762803	      0.92416441	      0.49791777	     19.71218805	      1.41307613	    -13.50012691	     21.54324317	     21.54324317	      7.21823075	     -6.25692611	     -5.03992941	     11.18769625	    -10.37253197	     -2.73155407	     46.70404643	     46.70404643	     10.20293964	    -13.86586117	     -9.16906995	     -9.08662639	      5.92082021	      0.48163785	      3.94411876	    -14.21489363	     -9.26073936	     41.51514005	     45.73956065	      0.00000000	      0.00000000	      8.00166993	     -9.90766344	     -8.48045667	     38.19684399	     46.72727120	      0.00000000	      0.00000000
     41.27857143	     -3.67898385	     -4.67308281	      1.41650048	      0.87688013	      0.92444614	      0.50021821	     19.08270859	      1.84276056	    -14.03716325	     21.28676155	     21.28676155	      7.50697373	     -6.03580730	     -5.14496912	     13.32082330	    -10.94531414	     -1.57957967	     50.41335339	     50.41335339	      8.67585188	    -14.74020989	     -8.57632805	     -9.18188196	      6.22933412	      0.75105576	      5.76406544	    -14.53836877	     -9.42528005	     42.33950256	     45.72877746	      0.00000000	      0.00000000	      6.97532218	     -9.49111022	     -8.24223874	     37.22236561	     46.67813151	      0.00000000	      0.00000000
     41.29178571	     -3.62831857	     -4.72525094	      1.75508133	      0.87594500	      0.92482831	      0.50212779	     18.47815853	      1.93377719	    -14.61085281	     21.06871401	     21.06871401	      7.82073781	     -5.43656459	     -5.39704901	     15.58616072	    -11.06851161	     -0.47628581	     54.18761059	     54.18761059	      9.32399416	    -14.49700122	     -2.79458077	     -9.20284286	      6.36480820	      0.98177773	      7.82889301	    -14.78406138	     -9.42772139	     42.84760463	     45.72428234	      0.00000000	      0.00000000	      6.65454825	     -9.21807422	     -7.21431476	     34.19302956	     46.51752963	      0.00000000	      0.00000000
     41.30500000	     -3.58961952	     -4.92201207	      2.08426940	      0.87489395	      0.92517964	      0.50409122	     17.86752381	      2.24820210	    -15.02298238	     20.74879259	     20.74879259	      8.06823407	     -5.18244518	     -5.44221055	     17.62995017	    -11.36768980	      0.46275193	     57.04130488	     57.04130488	      8.18494978	    -15.14672375	     -2.06941814	     -9.28363552	      6.58506039	      1.24405685	      9.73566481	    -15.06876999	     -9.56877232	     43.66711050	     45.71271769	      0.00000000	      0.00000000	      5.57629689	     -8.87609935	     -7.02410671	     33.37905547	     46.47243017	      0.00000000	      0.00000000
